<svg xmlns="http://www.w3.org/2000/svg" viewBox="0 0 104.38 39.97"><defs><style>.cls-1{fill:#fff;}</style></defs><g id="Слой_2" data-name="Слой 2"><g id="DEMI_в_новостях" data-name="DEMI в новостях"><path class="cls-1" d="M0,40V34H2.39a1.79,1.79,0,1,1,0,3.58H.75V40Zm3.48-4.14A1.1,1.1,0,0,0,2.31,34.7H.75V37H2.31A1.11,1.11,0,0,0,3.49,35.83Z"/><path class="cls-1" d="M37.47,40l-.53-1.31H34L33.46,40h-.84L35,34h.92L38.31,40Zm-2-5.17L34.2,38h2.52Z"/><path class="cls-1" d="M70.08,40l-1.51-2.35H67.38V40h-.73V34H69a1.72,1.72,0,0,1,1.86,1.79,1.64,1.64,0,0,1-1.54,1.72L71,40Zm0-4.14a1.1,1.1,0,0,0-1.18-1.13H67.38V37h1.56A1.11,1.11,0,0,0,70.12,35.83Z"/><path class="cls-1" d="M103.47,40l-2.25-2.67-.6.68v2h-.74V34h.74v3.07L103.25,34h.92l-2.47,2.82L104.38,40Z"/><path class="cls-1" d="M0,18.92a8.34,8.34,0,0,1,8.68-8.55,7.77,7.77,0,0,1,6.66,3.44L13,15.15A5.23,5.23,0,0,0,8.68,13a5.65,5.65,0,0,0-5.7,6,5.68,5.68,0,0,0,5.7,6,6,6,0,0,0,3.91-1.49V20.85H11L9.48,18.3h6v6.2a9,9,0,0,1-6.81,3A8.36,8.36,0,0,1,0,18.92Z"/><path class="cls-1" d="M33.24,18.92a8.34,8.34,0,0,1,8.67-8.55,7.8,7.8,0,0,1,6.67,3.44L46.2,15.15A5.26,5.26,0,0,0,41.91,13a5.66,5.66,0,0,0-5.7,6,5.69,5.69,0,0,0,5.7,6,6,6,0,0,0,3.92-1.49V20.85h-1.6L42.72,18.3h6v6.2a9,9,0,0,1-6.82,3A8.36,8.36,0,0,1,33.24,18.92Z"/><path class="cls-1" d="M101.34,27.18l-8.62-11.8v11.8h-2.9V10.64h3l8.45,11.48V10.64h2.9V27.18Z"/><path class="cls-1" d="M78.37,27.18h3.35l-4-6.5a4.64,4.64,0,0,0,3.92-4.86c0-3.05-2.14-5.18-5.41-5.18H68.93V27.18h2.9v-14h4a2.64,2.64,0,1,1,0,5.26H73.28l1.86,3.27h0Z"/><rect class="cls-1" y="30.36" width="104.14" height="0.49"/><polygon class="cls-1" points="33.29 27.18 26.79 10.64 23.17 10.64 16.68 27.18 19.98 27.18 24.98 14.68 27.46 20.85 23.97 20.85 25.49 23.41 28.47 23.41 28.48 23.4 29.99 27.18 33.29 27.18"/><polygon class="cls-1" points="66.52 27.18 60.03 10.64 56.41 10.64 49.91 27.18 53.21 27.18 58.22 14.68 60.69 20.85 57.2 20.85 58.71 23.41 61.72 23.41 63.23 27.18 66.52 27.18"/><path class="cls-1" d="M84.3,3.33l.35,17h.06l.35-16.57A2.49,2.49,0,0,1,84.3,3.33Z"/><circle class="cls-1" cx="85.77" cy="1.45" r="1.45"/><path class="cls-1" d="M86.43,3.74l.34,16.54h.06l.35-16.91A2.29,2.29,0,0,1,86.43,3.74Z"/><path class="cls-1" d="M85.77,3.84a2.21,2.21,0,0,1-.37,0l.34,16.48h.06L86.14,3.8A2.33,2.33,0,0,1,85.77,3.84Z"/></g></g></svg>