<svg xmlns="http://www.w3.org/2000/svg" viewBox="0 0 16.56 16.55"><defs><style>.cls-1{fill:#c4c4c4;}</style></defs><g id="Слой_2" data-name="Слой 2"><g id="контакты"><path class="cls-1" d="M12.72,2.88h0a1,1,0,0,1,1,1,1,1,0,1,1-1-1Z"/><path class="cls-1" d="M16.46,4.15c.12,1.31.2,7.46-.18,8.91a4.26,4.26,0,0,1-3.66,3.31,42.43,42.43,0,0,1-4.57.18,28.51,28.51,0,0,1-4.6-.24A4.16,4.16,0,0,1,.16,12.7c-.22-1.4-.25-7.89.16-9.3A4.21,4.21,0,0,1,3.92.19,31.77,31.77,0,0,1,8.07,0c1.55,0,3.11,0,4,.09a4.59,4.59,0,0,1,3,1.24A4.39,4.39,0,0,1,16.46,4.15Zm-1.6,8.27A59.8,59.8,0,0,0,15,4.29a2.78,2.78,0,0,0-2.48-2.63A37.42,37.42,0,0,0,8.35,1.5c-1.65,0-3.29,0-4,.12A2.84,2.84,0,0,0,1.69,4.11a57.15,57.15,0,0,0-.05,8.36,2.67,2.67,0,0,0,2,2.34,25.41,25.41,0,0,0,4.45.25c1.74,0,3.44-.06,4.08-.13a2.83,2.83,0,0,0,2.65-2.51"/><path class="cls-1" d="M8.31,4a4.2,4.2,0,0,1,4.21,4.24,4.28,4.28,0,0,1-4.28,4.24A4.21,4.21,0,0,1,4,8.28,4.28,4.28,0,0,1,8.31,4Zm-.06,7A2.77,2.77,0,0,0,11,8.3a2.71,2.71,0,0,0-2.7-2.77h0A2.77,2.77,0,0,0,5.53,8.25,2.72,2.72,0,0,0,8.23,11h0"/></g></g></svg>