<svg xmlns="http://www.w3.org/2000/svg" xmlns:xlink="http://www.w3.org/1999/xlink" viewBox="0 0 44.08 45.59"><defs><style>.cls-1{fill:url(#Безымянный_градиент_3594);}.cls-2{fill:#181e2a;}.cls-3{fill:#1dfffe;}</style><radialGradient id="Безымянный_градиент_3594" cx="22.04" cy="23.55" r="22.04" gradientUnits="userSpaceOnUse"><stop offset="0.51"/><stop offset="0.68" stop-color="#010101" stop-opacity="0.64"/><stop offset="0.81" stop-color="#060605" stop-opacity="0.32"/><stop offset="0.9" stop-color="#0a0a09" stop-opacity="0.1"/><stop offset="1" stop-color="#1d1d1b" stop-opacity="0"/></radialGradient></defs><g id="Слой_2" data-name="Слой 2"><g id="Наши_проекты" data-name="Наши проекты"><circle class="cls-1" cx="22.04" cy="23.55" r="22.04"/><circle class="cls-2" cx="26.04" cy="17.95" r="17.95"/><path class="cls-3" d="M30.28,9.52a24.68,24.68,0,0,1-1.6,2.64c-.57.85-1.18,1.65-1.8,2.44a55.17,55.17,0,0,1-4,4.47V17a53.63,53.63,0,0,1,4,4.41c.61.78,1.21,1.58,1.78,2.41a25.06,25.06,0,0,1,1.57,2.61,25.06,25.06,0,0,1-2.61-1.57c-.83-.57-1.63-1.17-2.41-1.78a53.63,53.63,0,0,1-4.41-4L19.68,18,20.74,17a53.36,53.36,0,0,1,4.47-4c.79-.62,1.59-1.23,2.43-1.81A26.84,26.84,0,0,1,30.28,9.52Z"/></g></g></svg>