<svg xmlns="http://www.w3.org/2000/svg" viewBox="0 0 161.14 44.79"><defs><style>.cls-1{fill:#fff;}</style></defs><g id="Слой_2" data-name="Слой 2"><g id="лого_дэми" data-name="лого дэми"><path class="cls-1" d="M9.6,44.79H0V42.44H9.6a18.93,18.93,0,0,0,18.76-19A18.93,18.93,0,0,0,9.6,4.34H0V2H9.6a21.4,21.4,0,0,1,0,42.8Z"/><rect class="cls-1" x="51.98" y="2.56" width="25.85" height="2.35"/><rect class="cls-1" x="51.98" y="20.94" width="25.85" height="2.35"/><rect class="cls-1" x="51.98" y="39.31" width="25.85" height="2.35"/><polygon class="cls-1" points="136.31 41.24 131.13 6.33 115.43 29.53 99.31 3.79 101.31 2.54 115.51 25.21 132.57 0 138.64 40.89 136.31 41.24"/><rect class="cls-1" x="158.78" y="3.17" width="2.35" height="37.9"/></g></g></svg>