<svg xmlns="http://www.w3.org/2000/svg" viewBox="0 0 66.84 18.58"><defs><style>.cls-1{fill:#1dfffe;}</style></defs><g id="Слой_2" data-name="Слой 2"><g id="лого_дэми" data-name="лого дэми"><path class="cls-1" d="M4,18.58H0v-1H4A7.9,7.9,0,0,0,4,1.8H0v-1H4A8.83,8.83,0,0,1,12.74,9.7,8.83,8.83,0,0,1,4,18.58Z"/><rect class="cls-1" x="21.56" y="1.06" width="10.72" height="0.98"/><rect class="cls-1" x="21.56" y="8.68" width="10.72" height="0.98"/><rect class="cls-1" x="21.56" y="16.31" width="10.72" height="0.98"/><polygon class="cls-1" points="56.54 17.11 54.4 2.63 47.88 12.25 41.2 1.57 42.02 1.05 47.91 10.46 54.99 0 57.51 16.96 56.54 17.11"/><rect class="cls-1" x="65.87" y="1.31" width="0.98" height="15.72"/></g></g></svg>