<svg xmlns="http://www.w3.org/2000/svg" viewBox="0 0 117.47 48.33"><defs><style>.cls-1{fill:#fff;}.cls-2{fill:#f7922c;}.cls-3{fill:#414b9c;}</style></defs><g id="Слой_2" data-name="Слой 2"><g id="DEMI_в_новостях" data-name="DEMI в новостях"><path class="cls-1" d="M28.55,46.83V33.33h4a3.87,3.87,0,0,1,2,.45,2.75,2.75,0,0,1,1.12,1.31A5.28,5.28,0,0,1,36,37.17a4.31,4.31,0,0,1-.45,2.12,2.67,2.67,0,0,1-1.26,1.18,4.81,4.81,0,0,1-1.91.37H31v6ZM31,39.1H32a2.21,2.21,0,0,0,1-.19,1.11,1.11,0,0,0,.32-.25,1.07,1.07,0,0,0,.2-.36,4,4,0,0,0,.14-1.14,5.31,5.31,0,0,0-.11-1.2,1,1,0,0,0-.16-.38,1,1,0,0,0-.31-.29A2.17,2.17,0,0,0,32,35.07H31Z"/><path class="cls-1" d="M37.28,46.83V33.33h2.47v11.8H43v1.7Z"/><path class="cls-1" d="M43.63,46.83l2.7-13.5H49l2.7,13.5H49.39l-.54-3.11H46.5L46,46.83Zm3.12-4.68h1.83l-.92-5.66Z"/><path class="cls-1" d="M53,46.83V33.33h1.72L58,41V33.34h2V46.83H58.37l-3.31-8.06v8.06Z"/><path class="cls-1" d="M62.06,46.83V33.33h5.68v1.73H64.53V39h2.52v1.71H64.53v4.46h3.24v1.7Z"/><path class="cls-1" d="M70.56,46.83V35.15H68.4V33.34h6.75v1.81H73V46.83Z"/><path class="cls-1" d="M75.37,46.83l2.7-13.5h2.64l2.7,13.5H81.13l-.54-3.11H78.24l-.55,3.11Zm3.12-4.68h1.84l-.92-5.66Z"/><path class="cls-1" d="M84.7,46.83V33.33h3.24a7.55,7.55,0,0,1,2.31.33,2.65,2.65,0,0,1,1.44,1.11,4,4,0,0,1,.49,2.13A6.67,6.67,0,0,1,92,38.37a2.77,2.77,0,0,1-.51,1.1,2.19,2.19,0,0,1-1,.71l1.88,6.65H89.94l-1.63-6.18H87.17v6.18Zm2.47-7.73h.77a2.62,2.62,0,0,0,1.14-.2,1.25,1.25,0,0,0,.61-.67,3.18,3.18,0,0,0,.19-1.18,2.56,2.56,0,0,0-.38-1.52A1.66,1.66,0,0,0,88.07,35h-.9Z"/><path class="cls-1" d="M94.1,46.83V33.33h2.44v13.5Z"/><path class="cls-1" d="M102.33,47a4.22,4.22,0,0,1-2.34-.55,2.83,2.83,0,0,1-1.15-1.56,8.68,8.68,0,0,1-.32-2.43V33.34h2.4v9.41a7.85,7.85,0,0,0,.09,1.19,1.59,1.59,0,0,0,.39.9,1.17,1.17,0,0,0,.42.27,1.22,1.22,0,0,0,.5.08,1.19,1.19,0,0,0,1-.35,1.76,1.76,0,0,0,.38-.9,5.91,5.91,0,0,0,.09-1.19V33.34h2.39v9.13a8,8,0,0,1-.32,2.43,2.76,2.76,0,0,1-1.14,1.56A4.17,4.17,0,0,1,102.33,47Z"/><path class="cls-1" d="M108,46.83l.24-13.5h2.55l1.92,9.35,2-9.35h2.47l.25,13.5h-1.83l-.2-9.38-1.92,9.38H112l-2-9.41-.19,9.41Z"/><path class="cls-2" d="M74.84,19.78H28.57V31.49H74.84Z"/><path class="cls-1" d="M30,29.86V21.78h.87l2,5v-5h1.15v8.08h-.82l-2.07-5.38v5.38Z"/><path class="cls-1" d="M37.38,29.94a2.67,2.67,0,0,1-1.05-.18,1.54,1.54,0,0,1-.69-.54,2.37,2.37,0,0,1-.38-.84,5.26,5.26,0,0,1-.12-1.12V24.33a5.17,5.17,0,0,1,.12-1.11,2.32,2.32,0,0,1,.38-.83,1.48,1.48,0,0,1,.69-.51,2.67,2.67,0,0,1,1.05-.18,2,2,0,0,1,1.71.68,3.16,3.16,0,0,1,.52,2v2.93a5.1,5.1,0,0,1-.12,1.11,2.37,2.37,0,0,1-.38.84,1.76,1.76,0,0,1-.69.55,2.65,2.65,0,0,1-1,.18Zm-.85-1.3a.94.94,0,0,0,.85.36.92.92,0,0,0,.84-.36,2.11,2.11,0,0,0,.23-1.08V24.05A2,2,0,0,0,38.22,23a.93.93,0,0,0-.84-.35,1,1,0,0,0-.85.35,1.82,1.82,0,0,0-.23,1.05v3.51a2,2,0,0,0,.23,1.08"/><path class="cls-1" d="M42.76,29.94a2.65,2.65,0,0,1-1-.18,1.54,1.54,0,0,1-.69-.54,2.45,2.45,0,0,1-.38-.84,5.26,5.26,0,0,1-.12-1.12V24.33a5.17,5.17,0,0,1,.12-1.11,2.32,2.32,0,0,1,.38-.83,1.48,1.48,0,0,1,.69-.51,2.65,2.65,0,0,1,1-.18,2,2,0,0,1,1.71.68,3.16,3.16,0,0,1,.52,2v2.93a4.11,4.11,0,0,1-.12,1.11,2.37,2.37,0,0,1-.38.84,1.63,1.63,0,0,1-.69.55,2.62,2.62,0,0,1-1,.18Zm-.85-1.3a.94.94,0,0,0,.85.36.91.91,0,0,0,.84-.36,1.92,1.92,0,0,0,.23-1.08V24.05A1.92,1.92,0,0,0,43.61,23a1.21,1.21,0,0,0-1.7,0,2,2,0,0,0-.23,1.05v3.51a2.11,2.11,0,0,0,.23,1.08"/><path class="cls-1" d="M48.17,29.94a2.11,2.11,0,0,1-1.67-.64,2.79,2.79,0,0,1-.65-1.75L47,27.26c.06,1.16.44,1.73,1.16,1.73a.76.76,0,0,0,.86-.86,1.55,1.55,0,0,0-.07-.48,1.53,1.53,0,0,0-.21-.4,2.44,2.44,0,0,0-.27-.29,1.92,1.92,0,0,0-.32-.28l-1.44-1.15a2.33,2.33,0,0,1-.64-.79,2.63,2.63,0,0,1-.24-1.1,1.87,1.87,0,0,1,.13-.77,1.89,1.89,0,0,1,.43-.65,2.06,2.06,0,0,1,.68-.41,2.14,2.14,0,0,1,.79-.12,2.35,2.35,0,0,1,1.56.48,2.08,2.08,0,0,1,.72,1.36c0,.07,0,.15,0,.26L49,24.08s0-.12,0-.23a1.69,1.69,0,0,0-.35-.88.92.92,0,0,0-.35-.26,1,1,0,0,0-.44-.07.8.8,0,0,0-.34.05.72.72,0,0,0-.48.48,1,1,0,0,0,0,.35,1.43,1.43,0,0,0,.15.64,1.38,1.38,0,0,0,.43.5L49,25.82a2.78,2.78,0,0,1,1.16,2.23,1.91,1.91,0,0,1-.12.75,1.73,1.73,0,0,1-.43.63,2.16,2.16,0,0,1-1.48.51"/><path class="cls-1" d="M51.08,29.86V21.78h2c1.35,0,2,.76,2,2.3a2.08,2.08,0,0,1-.52,1.51,2,2,0,0,1-1.51.52h-.86v3.76Zm1.16-4.62h.29a4.73,4.73,0,0,0,.65,0,1.28,1.28,0,0,0,.44-.18.72.72,0,0,0,.28-.34,1.68,1.68,0,0,0,.08-.59,4,4,0,0,0-.06-.69.89.89,0,0,0-.68-.68,3.35,3.35,0,0,0-.71-.07h-.29Z"/><path class="cls-1" d="M55.84,29.86V21.78H57v3.46h2V21.78h1.16v8.08H59V26.11H57v3.75Z"/><path class="cls-1" d="M61.39,29.86V21.78h3.18v.86h-2v2.6H64v.87H62.54V29h2v.87Z"/><path class="cls-1" d="M65.33,29.86V21.78h1.45a3.1,3.1,0,0,1,1.94.5,1.94,1.94,0,0,1,.66,1.66,2.64,2.64,0,0,1-.26,1.21,1.4,1.4,0,0,1-.75.67l1.3,4H68.52l-1.17-3.75h-.86v3.75Zm1.15-4.62h.3a1.66,1.66,0,0,0,1.08-.3,1.57,1.57,0,0,0,0-2,1.66,1.66,0,0,0-1.08-.3h-.3Z"/><path class="cls-1" d="M70.39,29.86V21.78h3.18v.86h-2v2.6H73v.87H71.54V29h2v.87Z"/><path class="cls-1" d="M27.05,0a5.05,5.05,0,0,0-2.77.83,5,5,0,0,0-2.12,5.1,4.9,4.9,0,0,0,1.36,2.54A5,5,0,0,0,32,5a5,5,0,0,0-5-5Zm3.59,1.94.09.1L30.65,2l0,0h0Zm-.2-.19.17.17-.22-.19h.05Zm-.79-.31a2.06,2.06,0,0,1,.35.12h0l-.19-.06-.08,0,0,.06.09.06-.24-.13,0-.09Zm0,.17h-.05s0,0,0,0l.06,0Zm-.13-.4s0,0,0,0l-.13-.05.1,0ZM28.24.85l.27.08H28.4L28.2.87l.26.11L28.3,1h0l-.06,0-.12,0L28,.89v0h0l-.14,0,0,0,.35,0Zm-1.13.82L27,1.74h.08a.86.86,0,0,0,.07.1s0,.07,0,.11l.12,0-.1.07h.06l0,0-.45,0L27,2l-.16,0,.08,0V1.9H27l0,0-.06,0,0,0h-.1s0,0,0-.05l-.09,0,.06-.08-.06,0,.12,0h.11l-.08,0,.14,0Zm-1-.42H26l.12,0h-.11l.1,0h.06s0,0,0,0l.29-.05.11.05a.18.18,0,0,0-.07.05l-.25,0a.64.64,0,0,1-.2,0l.05,0s0,0,0,0Zm.48.65-.05,0,0,0h.07l0-.05h.13s0,0,0,.05L26.74,2l-.22,0,0,0,.1-.06Zm-2.31-.73.14-.08h0a1.71,1.71,0,0,0-.23.13h0l.05,0Zm.1,0h0l.12-.06,0,0h0l.05,0,0,0a3.25,3.25,0,0,1,.43-.18l.42-.1c-.19.06-.37.13-.54.2l-.39.2-.17.07.16-.09Zm-.19.14.21-.09-.12.05-.2.09,0,0,.07-.06s0,0-.06,0l0,0,.09,0h0Zm.18-.05,0,0-.08,0h0l0,0,.1,0ZM24,1.32l.1-.06h0s0,0,0,0l.08-.05h0L24,1.31l-.05,0,0,0h0Zm-.06.06h0l0,0h0s0,0,0,0Zm-.05.05h0l.05,0,.05,0a.27.27,0,0,1-.08.07l0,0v0l0,0s0,0,0,0Zm0,.07-.05.05-.08.06v0l.17-.12-.06.05h0Zm-.1,0,.06-.05h0s0,0,0,.05l-.14.11h0l0,0,0,0,.09-.08.06,0v0Zm-.18.14.16-.15-.16.14h0Zm-.21.23,0,0,0,0,.08-.09,0,0-.11.11.1-.11h0l0,0,.08-.06.08-.07,0,0-.07.06-.06.07,0,0-.09.09,0,0-.15.14,0,0,0,0,0,0ZM23.32,2h0l0,0s0,0,0,0Zm.1,6.08,0-.06,0,0,0,0s0,0,0,0ZM24,7.74l0,0-.12,0-.07,0,0,0a.58.58,0,0,0,.05.14c0,.07,0,.13,0,.18l-.07,0L23.56,8l.12.15a.14.14,0,0,1,0,.06l-.06,0-.06-.05.06.09-.07-.05,0,0,.05.06h0l0,0h0l.1.1v0l0,0c-.11-.1-.21-.21-.31-.32l0,0,0,0,0,0v0l0,0v0h0l0,0L23.42,8l0,0,0,0-.09-.14a1,1,0,0,1-.07-.15s-.08-.15-.11-.22S23,7.21,23,7.1a1.07,1.07,0,0,1-.07-.19c-.06-.1-.12-.2-.17-.3s-.09-.26-.13-.39L22.54,6a.36.36,0,0,1,0-.1V5.87s0,0,0,0V5.69l0-.19c0-.1,0-.2,0-.3l0,0,0,0v0h0v0l0-.06s0-.06,0-.1h0V5a.77.77,0,0,0,0-.15h0l0-.17v0a1.79,1.79,0,0,1,0-.24A5,5,0,0,1,23.3,2l0,0,.07-.06,0,0,.08-.07h0l0,0,.06-.06.06-.06v0s0,0,0,0,0,0,0,0h0l.12-.12h0l.11-.09a.6.6,0,0,1,.08-.08L24,1.4l0,0-.15.11,0,0,0,.05-.05,0v0l.06,0-.06.07.09-.06L24,1.52l.06,0h0l-.1.08h0l-.13.11-.06,0-.08.07a3.26,3.26,0,0,0-.33.31l-.09.11h0a.41.41,0,0,1-.05.09l0,0s0,0,0,0l.05,0-.08.13s0,0,0,.08l.08-.09.07-.13.13-.11A.91.91,0,0,0,23.63,2h0l.07-.06.1-.14.14-.06,0,0,0,0H24l-.08.09v0l.2-.15s0,.09,0,.15L24,2a.06.06,0,0,0,0,0l.07,0-.05,0,.06,0,0,.07a1.56,1.56,0,0,0-.25.17l-.23.07-.25.26a.8.8,0,0,1,.13-.13l.11-.1v0l-.08,0h0a.41.41,0,0,0-.05.09h.05l0,0h.07l0,0h0l.08-.09v.06l-.28.22v0l.11-.1h0l-.24.18-.06.1V3L23.05,3s-.09.07-.11.11h-.06s0,0,0,0,0,0,0,.08l0,0h0l0-.07s0,0,0,0l-.05.1s0,.1,0,.15,0,0,0,0l-.15.21a1,1,0,0,0,0,.1,2.17,2.17,0,0,0,0,.25.56.56,0,0,0,0,.12V4s0-.08,0-.13,0,0,0-.05l0,0V3.78l0,0h0s0,0,0,0h0s0,0,0,.06h0v0l0,0v0a.5.5,0,0,0,0,.13,2.93,2.93,0,0,0-.05.29c0,.06,0,.12,0,.17v.06l0,0,0-.15h0l-.06.32v0h0s0,0,0,0a1.79,1.79,0,0,1,0,.24s0,.1,0,.15l0,0a.93.93,0,0,1,0,.13,1.13,1.13,0,0,1,0-.18h0l0-.08s0,0,0,0l0,0v.17h0V5.07l0-.07,0,.13.08,0,.06,0h0a.14.14,0,0,0,0,.06s0,0,0,0,0,0,0,.08h0a.41.41,0,0,1,.05.09v.06l.06.07.12.07.1.17a1.1,1.1,0,0,0,0,.16h0a1.17,1.17,0,0,1-.05.2h0a.43.43,0,0,0,0,0V6.11h.06l0,0v0h0l.12.1s0,.07,0,.1h0l.18.08c0,.08.11.15.17.23l.09,0c0,.07,0,.15.05.23l-.16.29a2.33,2.33,0,0,0,.05.28.75.75,0,0,1,0,.22Zm-.28-5.95-.09.07,0,0,0,0,.16-.15a.11.11,0,0,0,0,.05l0,0Zm0,0,0,.05,0,0s0,0,0,0Zm-.31.37,0,0,0,0,0,0,0,0v0l0,0Zm-.13.17,0,0h0l0,0Zm.64-.08v0s0,0,.07,0l0,0h0l-.07.06,0,0-.06.1h0l0,0-.07.05h0l0,0-.15,0a0,0,0,0,0,0,0L24,2.2l.06,0-.13.13,0,0ZM22.79,4.59h0v0l0,0Zm-.25-.14,0,0h0V4.34s0,0,0,0v0h0l0,.05s0,0,0-.06l0,0,.09.2Zm0,.14,0,0v0l0,0Zm.08,0s0,0,0-.08h0l.07,0a.24.24,0,0,0,0,.08v0l0,0a.14.14,0,0,0,0,.06,0,0,0,0,1,0,0l-.06,0ZM24.1,8.71l0,0,0,0h0l.08.06,0,0Zm.24-7.2,0,0-.05,0v.07l-.08,0h-.06s0,0,0,0l-.07,0-.06,0-.13,0,.07-.05.12-.06h0l.12-.08a.08.08,0,0,1,0,0l0,0-.05,0,.05,0,0,0-.08.05L24,1.51s0,0,0,0l.18-.13.07,0-.11.08a.08.08,0,0,0,0,0h0l.07-.06.1-.07h0l-.08.06.22-.09,0,0h.07l0,0,0,0h0l-.07,0h.07l.06,0-.17.11Zm-.31,0v0a.1.1,0,0,0,.05,0h0l-.05,0,0,0Zm1.16-.16-.11.06v0l-.19.13-.15-.05a1.08,1.08,0,0,1,0-.19l.11-.1L25,1.19v0l-.15,0L25,1.15h.1a.08.08,0,0,1,0,0l-.09,0,.09-.08a.13.13,0,0,1,0-.06l-.29.07h0l0,0h-.05l.1,0h-.09L25,.92l.07,0L25,.91l.26-.1c.21-.05.43-.1.65-.13a5.63,5.63,0,0,1,.59-.05l.24,0H27l-.37,0s0,0,0,.06h-.13l.06,0-.06,0h.06a.7.7,0,0,0-.14,0h0L26.4.9l0,0h-.1l.1,0,0,0-.14,0-.08,0h.14l-.48.1-.24.11a1.81,1.81,0,0,1-.27.06l-.06.08Zm4.64,6.5,0,0h0c-.12.19-.24.37-.37.54l0,0-.12,0,0,0c0-.05,0-.09,0-.14s.08-.08.11-.12a.57.57,0,0,0,0-.14L29.5,8l.21-.12,0-.08.05,0,.06-.09a1.23,1.23,0,0,1,0,.2Zm1.5-1.65h0s0-.08,0-.13l0-.11h0v.13l0,.09Zm.4-.92a2.11,2.11,0,0,1,0,.25c0,.14,0,.26-.07.39a1.22,1.22,0,0,1-.1.24h0a.78.78,0,0,1,0,.14v0a1.29,1.29,0,0,1-.07.21,1.29,1.29,0,0,0,.05-.21c0-.05,0-.1,0-.16a.16.16,0,0,0,0,.08s-.07,0-.07,0v0c0-.06.08-.13.09-.19s0,0,0-.07a1.83,1.83,0,0,1,.06-.25,1.64,1.64,0,0,0,0-.22v0a.64.64,0,0,0,0,.07v0a.5.5,0,0,1,0-.17c0-.09,0-.17,0-.25a.08.08,0,0,1,0,0l0,0v0s0,0,0,0,0,.07,0,.1l-.09.23,0,0a2.2,2.2,0,0,1-.06.37l-.07.15a.07.07,0,0,0,0-.06c0-.16,0-.33,0-.51V5.13l0,.09h0a.56.56,0,0,1,0-.12s0,0,0-.05h0l-.08-.21h-.18a.7.7,0,0,1-.17-.09l0-.1h-.13l-.11-.13-.06-.18a.27.27,0,0,1-.08-.07l0,.09.15.39s0,0,0-.07l0,0a.59.59,0,0,1,0,.13.58.58,0,0,1,.14,0l.09-.15a.37.37,0,0,0,0,.11c.05.07.1.14.14.21l-.09.19v.07a1.15,1.15,0,0,1-.14.17l-.09,0a.25.25,0,0,0,0,.07l-.28.18-.21,0c0-.13,0-.26,0-.38s-.11-.25-.17-.37,0-.17,0-.27-.15-.28-.23-.42a.59.59,0,0,1,0-.13l-.06.15a1.47,1.47,0,0,0-.1-.22c.07.23.14.46.2.69l.07.07,0,.32.06.06a1.85,1.85,0,0,0,0,.23L30,5.8l0,.07L30,6l.33-.1,0,0s0,.07,0,.11-.17.35-.26.52l-.53.54-.17.29c0,.1,0,.2,0,.3a2.81,2.81,0,0,1-.1.31l-.46.35a.57.57,0,0,1,0,.13.29.29,0,0,1-.06.11l-.16.07a.86.86,0,0,1-.1.16L28.22,9,28,9.08h-.11l-.16,0-.1,0a.14.14,0,0,0,0-.06l0,0-.13-.21V8.51a2.44,2.44,0,0,1-.14-.28l.11-.31.12-.14c0-.15,0-.31-.07-.47l-.23-.4.06-.07c0-.09.05-.18.07-.28l0-.08,0-.05H27.1L27,6.21h-.24l-.28.09-.19-.06L26,6.3l-.07,0-.34-.36a.51.51,0,0,0,0-.13l-.15-.29-.09,0c0-.05,0-.1,0-.15l0-.08.09-.1c0-.06,0-.14.05-.2V4.5L25.81,4l.12,0,.15-.13.09-.26.21-.12.1-.16.26.08.29-.1h.67l.05.06.05,0,0,.05,0,.11-.08.12.4.19a.24.24,0,0,0,0,.08l.23.14.1,0c0-.05,0-.09,0-.14l.13,0,.25.16.27.1.14,0,.07.07.14,0c0-.09.06-.17.08-.25V3.59l-.19,0-.11-.09a.25.25,0,0,1-.09,0L29,3.48V3.39l-.06,0h0l-.06-.13s0,0,.06,0l.13,0,0,0,0,0v0l0,0h.32l.14.11.15,0s.11,0,.14-.06-.25-.2-.25-.31v0h0s0,0,0-.06l-.05,0h.08l-.1,0-.17.05a.23.23,0,0,1,.07.07.09.09,0,0,0,.07,0v0h-.16l-.08-.09.06,0-.1-.08h-.08l-.07,0c0,.07-.07.15-.1.23l.08.11h0v0H29l-.08.06,0,0-.05,0-.1,0-.05.06-.07,0,.15.24h0v0l-.21-.09-.12-.19V3l-.3-.23s0,0,0-.08l-.05,0,0,0s0,0,0-.08h-.07v.1l.13.17.14.07.17.17L28.27,3v.13l-.07.09c0-.06,0-.13,0-.19l-.34-.24-.05-.15-.1,0-.17.09-.18-.06-.07,0v.09l-.18.06C27,2.87,27,2.93,27,3L27,3l-.22.16-.26,0-.09-.12h-.15l.12-.51.07,0,.47,0c0-.07,0-.14.05-.2l-.21-.19H27a.31.31,0,0,0,0-.08l.13,0L27.47,2l.08,0s0,0,0-.05h.19l0-.06s0-.09-.05-.13l0,0h.11a.15.15,0,0,0,0,.09l-.09.06.08.08.17,0V2l.06,0h.24l.06,0,.09,0,0-.14.15,0-.07-.12.35.05-.1-.07h-.27l-.13-.06V1.55a1,1,0,0,1,.18-.06l-.05-.05-.11,0-.06,0,0,0-.21.07v.07l.09.08-.11.05,0,.13-.18,0a2,2,0,0,0-.14-.25l-.17.05-.1,0s0,0,0-.08l.09,0s0,0,0,0l-.09,0a.07.07,0,0,0,0-.05h.11l0,0h-.13v0l.27-.05L28,1.33l.2-.11h0l0,0,.1,0h.2l.26.07.1,0-.11,0,.58.27,0,.06-.11,0-.29-.13.13.09s0,.05,0,.07l.18.08s-.08,0-.08-.06v0s.12.06.18.08,0,0-.07-.05h.1l.09.05v0l-.1-.12.13.07,0,0h-.05l.09.06,0,0,.18,0,.06.06a.53.53,0,0,1,.12,0l0,0h0l0-.05-.08-.05.38.26h0a.39.39,0,0,0-.1-.08.35.35,0,0,1-.05-.08.08.08,0,0,0,0,0l.1.06a.09.09,0,0,1,0,.05A1.85,1.85,0,0,1,30.4,2l0-.06a.46.46,0,0,1-.07-.07h0a.1.1,0,0,0,0,.05l.09.07-.09-.08,0,0h0l.1.08h0l-.11-.1v0l.13.08,0,0h0l.17.12,0,0,0,0,0,0h0l.07.08s0,0,0,0h0a4.91,4.91,0,0,1,.91,3.12v0Zm-4-2.39,0,0a.77.77,0,0,1,0,.15l-.06,0,0-.19Zm0-.11.05,0a.68.68,0,0,1,0,.14l0-.1Zm.26.41h.25l0,.14-.21-.15Zm.64.12.05,0,.07,0s0,.09,0,.13l-.1,0a.42.42,0,0,0,0-.1Zm.18.24v0l.18.06v0l-.13,0-.05,0Zm.59.12.14,0-.06.06ZM27.88,1.85H28l0,0-.05,0-.05,0Zm.42,0v0l.07,0,0,0Zm.21,0h.08s0,0,0,0h-.05l0,0"/><path class="cls-3" d="M22.87,3.19h0a0,0,0,0,1,0,0Z"/><path class="cls-3" d="M22.94,3.18a.25.25,0,0,1,0,.07s0,0,0,0l.05-.1v0"/><path class="cls-1" d="M7.59,27.37A20.19,20.19,0,0,0,2.26,32.3c-.64.5-1.61,1.27-2.19,1.76L0,34.12l1,.31s0,0,0,0v0L.46,35l.67-.11a.78.78,0,0,0,.32.15l0,0,.45.91,0-.08c.41-.65,1-1.74,1.46-2.44a20,20,0,0,0,2.38-2.89,25.59,25.59,0,0,0,1.77-3.1ZM2,35.39l-.33-.49.33.26,1.13-1.6Zm2.59-3.84A12.77,12.77,0,0,1,1.45,34.7l0,0h0l-.07-.05-.06-.06L3.59,32,1.75,33.81l-.12-.11a19.12,19.12,0,0,1,4.63-4.89l.38-.29-.27.39-.21.33c-.28.37-.62.83-1,1.32-.9,1.22-2.69,3.08-2.69,3.08a13.64,13.64,0,0,0,2.07-2.09"/><path class="cls-1" d="M29.49,9.81h-.08a.11.11,0,0,0-.08,0h0c0-.05-.13-.1-.28,0l-.33.18c-1.23.7-2.93-.21-3.22.44-1,2.18-3.09,3.93-4.59,5.57a11.9,11.9,0,0,1-1,1.26c-.53.46-1.27.65-1.72,1.18a7.19,7.19,0,0,1-.78.86,2,2,0,0,1-.35-.56l0-.07v0a.72.72,0,0,1,.1-.43s.69-1.14.71-1.19a.62.62,0,0,0,.08-.24c0-.21-.21-.27-.27-.37a.3.3,0,0,1,0-.26.14.14,0,0,0,0-.09.2.2,0,0,0,0-.08.32.32,0,0,0-.16,0,.4.4,0,0,0,0-.19l0-.06-.05,0c-.06-.05-.26-.09-.31-.16a1,1,0,0,0,.05-.38.29.29,0,0,0,0-.09.26.26,0,0,0-.12-.12h-.09a3,3,0,0,1-.73,0,.38.38,0,0,1-.26-.13,2.49,2.49,0,0,0-1.41-1.21c0-.16,0-.49-.32-.59a.94.94,0,0,0-.65.1,6.54,6.54,0,0,0-1,.7c-.21.24-.39.46-.56.67a6.1,6.1,0,0,0-.38.53,7.34,7.34,0,0,0-.55.89,2.81,2.81,0,0,0,.09,1.72A3.3,3.3,0,0,0,12.08,19a1.94,1.94,0,0,0,1.26.46,3.64,3.64,0,0,1,1,.22,1.43,1.43,0,0,1,.44.37.1.1,0,0,1,0,0,1.3,1.3,0,0,1,0,.78,1.35,1.35,0,0,1-.38.68c-1.74,1.3-1.88,3.72-3.3,5.26-1,1.12-2,2.09-3,3.21l-1.1.8-.91.46c-.22.13-.44.26-.64.4s-.23.18-.34.26a1.79,1.79,0,0,1-.26.2c-.12.07-.26.13-.38.21a2.29,2.29,0,0,0-.45.43,2.14,2.14,0,0,0-.23.38,1.19,1.19,0,0,0-.24.63c1.22,1.29,1.85-.47,2.59-1.18s2.08-1.16,3.13-2a25.56,25.56,0,0,0,2.83-2.35c1.19-1.25,1.5-3,2.58-4.15.7,1.31,2.85,2.07,2.43,3.92a23.79,23.79,0,0,0-.87,4.15v.56s0,2.32,0,2.94a3.38,3.38,0,0,1-.46,1.4c-.11.17-.49.68-.77,1.06-.16.21-.44.55-.51.63a11.24,11.24,0,0,0-1.53,4,2.06,2.06,0,0,1-.35.85A2.64,2.64,0,0,0,12,44.86c-.13.4-.37,1-.37,1A11.2,11.2,0,0,0,11,47.24c-.18.54.08.68.08.68.07.22.36.25.36.25s.34.16.34.16h.78c.31,0,.43,0,.49-.23a14.4,14.4,0,0,1,.1-1.44,12.58,12.58,0,0,1,.54-2.09,8.36,8.36,0,0,1,1.5-2.4,12.43,12.43,0,0,0,1.26-2.1,6.8,6.8,0,0,1,1.06-1.25,3.76,3.76,0,0,0,1-1.41c.1-.24.32-.83.32-.83a.88.88,0,0,1,.24.36.79.79,0,0,1,0,.43c0,.08-.27,1.13-.43,1.8a6.74,6.74,0,0,0,.35,3,11.55,11.55,0,0,1,.35,2.09,2.33,2.33,0,0,1-.23,1A1.48,1.48,0,0,0,19,46c.11.56.86.48.86.48s1.05,0,1.24,0a2.86,2.86,0,0,1,.93.43,1.59,1.59,0,0,0,.6.14s.59,0,.78,0a.23.23,0,0,0,.16-.06.26.26,0,0,0,.09-.16.43.43,0,0,0,0-.25h.06s0,0,0,0v-.05a.15.15,0,0,0-.08-.15c0-.06-.17-.07-.19-.07s-.11-.06-.17-.06a.14.14,0,0,1,.08.09h.07s.16,0,.17.07.08,0,.09.07h-.1s0-.09-.1-.09l-.18,0s0-.13-.28-.2l.17,0a.84.84,0,0,0-.35-.07.37.37,0,0,1-.24-.12s-.92-1-1.25-1.25-.48-.5-.48-.57a57.72,57.72,0,0,1,.21-6c.11-.28.4-1.1.47-1.28a15.9,15.9,0,0,0,.11-1.94,5.74,5.74,0,0,1,.16-1c.15-.7.29-1.34.35-1.72s.19-.83.25-1.25c.22-1.73-.47-3-.79-4.39a20.88,20.88,0,0,0-.78-3.14,15.47,15.47,0,0,1-1.18-2.74c-.11-1.24,1.26-2,2-2.75s1.09-1.3,1.65-1.88a23.07,23.07,0,0,0,2.82-4.23c.95-1.52,1.64,0,3.27-1.5.19-.21.25-.4.13-.46ZM14.36,14c-.15.19-.41.23-.65.46a.31.31,0,0,0-.13.2.32.32,0,0,0,.05.23c.14.16.41.49,0,.69a2.5,2.5,0,0,1-1,0c.94-.14.81-.39.75-.48s-.17-.08-.51.14a1.36,1.36,0,0,1-.65.25,2.15,2.15,0,0,0,1-.78l.19-.28s-.13,0-.55.33a1.92,1.92,0,0,1-.62.32,2.87,2.87,0,0,0,.6-.55,1.4,1.4,0,0,1,.91-.49s-.17-.09-.65.07a3.15,3.15,0,0,0-.51.28,1.13,1.13,0,0,1,1-.58c.79,0,.7-.22.7-.22l.06.08a.41.41,0,0,1,0,.11.36.36,0,0,1,0,.1.16.16,0,0,1-.06.08ZM5.71,32.94c-.35,0-.42.21-.48.47-.22-.37.49-.63.08-1-.36.52-.34,1-.86,1.18.17-.6.8-1.63,1.63-1.64a.79.79,0,0,0-.38,1Zm4.85-3.85c-.1,0-.12-.13-.24-.15s.15.21.08.39a.22.22,0,0,1-.12-.09.19.19,0,0,1,0-.15,2.34,2.34,0,0,0-.95,1c.09-.05.09-.18.24-.15-.12.19-.21.41-.47.47,0-.18-.11-.15-.23-.16.34-1.11,1.65-1.27,1.88-2.51.43-.11.29-.81.86-.78-.05-.08-.17-.08-.15-.24s.21,0,.23-.15a1.2,1.2,0,0,0,.47.94c-.16.88-1.28.81-1.56,1.56Zm5.49-7.29c-.5.24-1.18.22-1.72.71-1.1,1-1.24,3-2.51,4.07,1.31-1.3,1.21-4,3.06-4.78.24.08-.18.13-.16.24.25.14.35-.54.78-.47.05-.36,0-.58.55-.55,0,.2-.13.49-.31.31,0,.24.22.3.31.47ZM12.49,48a0,0,0,0,1,0,0l0,0h-.31a.05.05,0,0,0-.06,0h-.27c0-.09-.1-.11-.1-.11h-.24c0-.14-.18-.17-.18-.17h.1c.16,0,.15.08.15.08h.28l0,0s0,0,0,0v0h.28l0,0v0h.25c.08,0,.07.1.07.1Zm.07-2.84c-.3,0-.24-.47-.24-.47s0-.11.07,0a.21.21,0,0,0,0,.1.27.27,0,0,0,.08.07c.07.06.17-.1.3-.25s.13,0,.13,0-.09.65-.38.61ZM13,47.89s0,0-.15,0-.22,0-.25.06v0s0-.16.14-.15h.15s.1,0,.11.08Zm3.31-10.73c-.06.13-.36.67-.55,1s-.45,1.19-.94,1.17c.53-.65,1-2,1.64-2.74,0,.11,0,.25,0,.3-.12,0-.36.37-.2.25Zm7.05,9.49s.05,0,.07-.06a.24.24,0,0,1,.09-.11.55.55,0,0,0-.06.22,2,2,0,0,1-.35-.08l.25,0Zm-5.25-25c-.17.33-.19.11-.55.08.14-.47-.67-.29-.7-.87-.22,0-.16.13-.32,0s.09-.12.08,0a6.88,6.88,0,0,0,.24-1c.16,0,.15.21.23.31.06-.06,0-.4.16-.54.36,0,.47.1.94.15-.16.06-.25.35,0,.39-.06.14-.14,0-.24,0-.08.27.25.13.39.16.09-.29-.19-.22-.15-.47.23-.07.09-.12.08-.31a1.89,1.89,0,0,1,.78-.24c.06.18.07.69-.31.79.25.09.05.62.47.55-.22.38.35.36.23.86-.5-.25-.59-.92-1.25-1a.53.53,0,0,0,.23.16,3.61,3.61,0,0,0,.47,2.59,1.89,1.89,0,0,1-.78-1.56Zm1.48,24a.75.75,0,0,1-.29-.09l0,0a.09.09,0,0,1,0-.06.06.06,0,0,1,0-.06.14.14,0,0,1,0-.06c.05-.08.09,0,.15,0a2.39,2.39,0,0,0,.23.22C19.68,45.62,19.57,45.62,19.57,45.62ZM20.05,23c0,.52.5.74.31,1.18-.25-.05-.36,0-.54.07-.18-.16.06-.25-.08-.39a.41.41,0,0,1-.24.08c0,.23.36.27.16.47-.11-.08-.41-.36-.24-.47,0-.12-.1,0-.23,0s-.2-.22-.16-.47c.22-.06.16.16.32.16-.07-.18-.21-.27-.16-.55.22.11.53.14.69.31s-.21.21-.23.39c.38,0,.08-.17.31-.31-.11-.17-.15-.42-.31-.55,0-.15.29.06.39.08Zm2.67-8.16s0,.2,0,.23c-.46.44-1.13.67-1.59,1.08,0,.06-.07.12-.07.18v-.16l.07,0a1.59,1.59,0,0,1,1.33-1c0-.07-.08-.06-.15-.08.89-1.28,2.29-2.48,2.91-3.76.44,0,.57-.34,1-.64a31.75,31.75,0,0,1-3.45,4.17"/></g></g></svg>