<svg xmlns="http://www.w3.org/2000/svg" xmlns:xlink="http://www.w3.org/1999/xlink" viewBox="0 0 44.08 44.08"><defs><style>.cls-1{fill:url(#Безымянный_градиент_3594);}.cls-2{fill:#181e2a;}.cls-3{fill:#1dfffe;}</style><radialGradient id="Безымянный_градиент_3594" cx="22.04" cy="22.04" r="22.04" gradientUnits="userSpaceOnUse"><stop offset="0.51"/><stop offset="0.68" stop-color="#010101" stop-opacity="0.64"/><stop offset="0.81" stop-color="#060605" stop-opacity="0.32"/><stop offset="0.9" stop-color="#0a0a09" stop-opacity="0.1"/><stop offset="1" stop-color="#1d1d1b" stop-opacity="0"/></radialGradient></defs><g id="Слой_2" data-name="Слой 2"><g id="Наши_проекты" data-name="Наши проекты"><circle class="cls-1" cx="22.04" cy="22.04" r="22.04"/><circle class="cls-2" cx="17.95" cy="17.95" r="17.95"/><path class="cls-3" d="M13.71,9.52a25.72,25.72,0,0,1,2.64,1.6c.84.58,1.65,1.19,2.44,1.81a53.22,53.22,0,0,1,4.46,4L24.31,18l-1.06,1.06a53.63,53.63,0,0,1-4.41,4c-.78.61-1.58,1.21-2.41,1.78a25.06,25.06,0,0,1-2.61,1.57,25.13,25.13,0,0,1,1.58-2.61c.56-.83,1.16-1.63,1.78-2.41A55.2,55.2,0,0,1,21.13,17v2.12a55.05,55.05,0,0,1-4-4.47c-.63-.79-1.24-1.59-1.81-2.44A24.68,24.68,0,0,1,13.71,9.52Z"/></g></g></svg>