<svg xmlns="http://www.w3.org/2000/svg" viewBox="0 0 38.32 16.55"><defs><style>.cls-1{fill:#1dfffe;}</style></defs><g id="Слой_2" data-name="Слой 2"><g id="Главная"><path class="cls-1" d="M6.52,0C7,0,7.41.05,7.85.07c.28,0,.57,0,.84.08l0,2.66H6.93C6.22,2.84,5.7,3.1,5.67,4c0,.63,0,2,0,2.1H8.56c-.14,1-.27,2-.41,3H5.63l-.06,7.47H2.47l.06-7.48H0l0-3H2.57V5.88c0-.6,0-1.2,0-1.8a8.75,8.75,0,0,1,.09-1.14A3.44,3.44,0,0,1,4,.72,3.82,3.82,0,0,1,6.27,0Z"/><path class="cls-1" d="M34.49,2.88h0a1,1,0,0,1,1,1,1,1,0,0,1-1,1,1,1,0,0,1,0-2Z"/><path class="cls-1" d="M38.22,4.15c.13,1.31.2,7.46-.18,8.91a4.24,4.24,0,0,1-3.65,3.31,42.56,42.56,0,0,1-4.57.18,28.43,28.43,0,0,1-4.6-.24,4.16,4.16,0,0,1-3.3-3.61c-.22-1.4-.24-7.89.16-9.3A4.22,4.22,0,0,1,25.69.19,31.77,31.77,0,0,1,29.84,0c1.54,0,3.1,0,4,.09a4.55,4.55,0,0,1,3,1.24A4.3,4.3,0,0,1,38.22,4.15Zm-1.59,8.27a58.21,58.21,0,0,0,.1-8.13,2.78,2.78,0,0,0-2.48-2.63,37.3,37.3,0,0,0-4.14-.16c-1.64,0-3.29,0-4,.12a2.84,2.84,0,0,0-2.64,2.49,55.85,55.85,0,0,0-.06,8.36,2.68,2.68,0,0,0,2,2.34,25.62,25.62,0,0,0,4.46.25c1.73,0,3.44-.06,4.08-.13a2.83,2.83,0,0,0,2.65-2.51"/><path class="cls-1" d="M30.08,4a4.2,4.2,0,0,1,4.21,4.24A4.29,4.29,0,0,1,30,12.52,4.2,4.2,0,0,1,25.8,8.28,4.27,4.27,0,0,1,30.08,4ZM30,11A2.78,2.78,0,0,0,32.79,8.3a2.72,2.72,0,0,0-2.7-2.77h0A2.76,2.76,0,0,0,27.3,8.25,2.71,2.71,0,0,0,30,11h0"/></g></g></svg>